<svg xmlns="http://www.w3.org/2000/svg" viewBox="0 0 240 240">
<path d="M235,186.65a53.92,53.92,0,0,1-1.63,11.52,64.89,64.89,0,0,1-3.43,11.19q-3.43,8.17-19.93,17.32Q194.65,235,179.62,235a63,63,0,0,1-8.58-.57,70.61,70.61,0,0,1-9.39-2q-5.23-1.47-7.76-2.37t-9.07-3.35q-6.53-2.45-8-2.94a148,148,0,0,1-28.59-13.56Q87.33,197.27,65,175t-35.2-43.21a148,148,0,0,1-13.56-28.59q-.49-1.47-2.94-8T10,86.1q-.9-2.53-2.37-7.76a70.61,70.61,0,0,1-2-9.39A63,63,0,0,1,5,60.38q0-15,8.33-30.38,9.15-16.5,17.32-19.93A64.9,64.9,0,0,1,41.84,6.63,53.92,53.92,0,0,1,53.35,5a9.15,9.15,0,0,1,3.43.49q2.94,1,8.66,12.41,1.8,3.1,4.9,8.82T76.06,37.1q2.61,4.66,5.06,8.74.49.65,2.86,4.08a45.62,45.62,0,0,1,3.51,5.8,10.66,10.66,0,0,1,1.14,4.66q0,3.27-4.66,8.17a79.63,79.63,0,0,1-10.13,9,98.38,98.38,0,0,0-10.13,8.66q-4.66,4.57-4.66,7.51a11,11,0,0,0,.82,3.68,35.66,35.66,0,0,0,1.39,3.35q.57,1.14,2.29,3.92t1.88,3.1a171.46,171.46,0,0,0,28.42,38.39,171.46,171.46,0,0,0,38.39,28.42q.33.16,3.1,1.88t3.92,2.29a35.66,35.66,0,0,0,3.35,1.39,11,11,0,0,0,3.68.82q2.94,0,7.51-4.66a98.38,98.38,0,0,0,8.66-10.13,79.63,79.63,0,0,1,9-10.13q4.9-4.66,8.17-4.66a10.66,10.66,0,0,1,4.66,1.14,45.62,45.62,0,0,1,5.8,3.51q3.43,2.37,4.08,2.86,4.08,2.45,8.74,5.06t10.37,5.72q5.72,3.1,8.82,4.9,11.43,5.72,12.41,8.66A9.15,9.15,0,0,1,235,186.65Z"/>
</svg>
