<svg xmlns="http://www.w3.org/2000/svg" viewBox="0 0 240 240">
<path d="M196.91,172.92l-47-16.49v-22.1c15-11.59,25-31.56,25-54.36,0-36-24.49-65-55-65S65,44,65,80c0,22.88,9.91,42.92,25,54.49v22L43,172.92a35.75,35.75,0,0,0-23,33v19a4.72,4.72,0,0,0,5,5H214.9a4.72,4.72,0,0,0,5-5v-19A34.56,34.56,0,0,0,196.91,172.92ZM75,80c0-30.48,20-55,45-55,24.49,0,45,24.49,45,55s-20,55-45,55S75,110.45,75,80ZM209.91,219.9H30v-14a24.79,24.79,0,0,1,16.49-23.49l50-18a4.8,4.8,0,0,0,3.5-4.5V140.51a47.73,47.73,0,0,0,20,4.42,47.12,47.12,0,0,0,20-4.5v19.49a4.8,4.8,0,0,0,3.5,4.5l50,18a24.79,24.79,0,0,1,16.49,23.49Z"/>
</svg>
